<svg version="1.2" xmlns="http://www.w3.org/2000/svg" viewBox="0 0 16 16" width="16" height="16">
	<title>utility-svg</title>
	<style>
		.s0 { fill: #8080a0 } 
		.s1 { opacity: .2;fill: #ffffff } 
	</style>
	<g id="Layer 1">
		<path fill-rule="evenodd" class="s0" d="m1.2 5.7c0-0.1-0.1 0.2-0.1 0.2 0.2-0.5 0.9-0.7 1.3-0.4 0 0-0.1-0.1-0.1-0.1l1.8 1.8c0.9 0.9 2.2 0.9 3.1 0 0.9-0.9 0.9-2.2 0-3.1l-1.8-1.8c0 0 0.1 0.1 0.1 0.1-0.3-0.4-0.1-1.1 0.4-1.3 0 0-0.3 0.1-0.2 0.1q0.7-0.2 1.5-0.2c3.4 0 6.2 2.8 6.2 6.2q0 0.1 0 0.3c0 0.9-0.1 1.4-0.1 1.4 0 1.2 0.1 1.3 0.9 2.2 0 0 0.1 0.1 0.3 0.3q0.2 0.2 0.2 0.2c0.5 0.6 0.5 1.5 0 2q0 0.1-0.2 0.2l-0.7 0.7q-0.1 0.2-0.2 0.2c-0.5 0.5-1.4 0.5-2 0q0 0-0.2-0.2c-0.2-0.2-0.3-0.3-0.3-0.3-0.9-0.8-1-0.9-2.2-0.9 0 0-0.5 0.1-1.4 0.1q-0.2 0-0.3 0c-3.4 0-6.2-2.8-6.2-6.2q0-0.8 0.2-1.5z"/>
		<path fill-rule="evenodd" class="s1" d="m1.2 5.7c0-0.1-0.1 0.2-0.1 0.2 0.2-0.5 0.9-0.7 1.3-0.4 0 0-0.1-0.1-0.1-0.1l1.8 1.8c0.9 0.9 2.2 0.9 3.1 0 0.9-0.9 0.9-2.2 0-3.1l-1.8-1.8c0 0 0.1 0.1 0.1 0.1-0.3-0.4-0.1-1.1 0.4-1.3 0 0-0.3 0.1-0.2 0.1q0.7-0.2 1.5-0.2c3.4 0 6.2 2.8 6.2 6.2q0 0.1 0 0.3c0 0.9-0.1 1.4-0.1 1.4 0 1.2 0.1 1.3 0.9 2.2 0 0 0.1 0.1 0.3 0.3q0.2 0.2 0.2 0.2c0.5 0.6 0.5 1.5 0 2q0 0.1-0.2 0.2l-0.7 0.7q-0.1 0.2-0.2 0.2c-0.5 0.5-1.4 0.5-2 0q0 0-0.2-0.2c-0.2-0.2-0.3-0.3-0.3-0.3-0.9-0.8-1-0.9-2.2-0.9 0 0-0.5 0.1-1.4 0.1q-0.2 0-0.3 0c-3.4 0-6.2-2.8-6.2-6.2q0-0.8 0.2-1.5z"/>
	</g>
</svg>