<svg version="1.2" xmlns="http://www.w3.org/2000/svg" viewBox="0 0 16 16" width="16" height="16">
	<title>globe-svg</title>
	<style>
		.s0 { fill: #5bafd4 } 
		.s1 { opacity: .2;fill: #ffffff } 
	</style>
	<g id="Layer 1">
		<path fill-rule="evenodd" class="s0" d="m7.5 15c-3.6 0-6.5-2.9-6.5-6.5 0-3.6 2.9-6.5 6.5-6.5 3.6 0 6.5 2.9 6.5 6.5 0 3.6-2.9 6.5-6.5 6.5zm-1.1-5.8q0.1 0.9 0.2 1.6 0 0.3 0.1 0.5c0.2 0.9 0.5 1.5 0.8 1.5 0.3 0 0.6-0.6 0.8-1.5q0.1-0.2 0.1-0.5 0.1-0.7 0.2-1.6zm2.1-1.4h-2.1q0-0.9 0.1-1.6 0.1-0.3 0.1-0.5c0.2-0.9 0.5-1.5 0.8-1.5 0.4 0 0.7 0.6 0.9 1.5q0 0.2 0.1 0.5 0.1 0.7 0.1 1.6zm1.8 1.4c0 1.1-0.1 2-0.3 2.8q-0.1 0.3-0.2 0.6c1.2-0.7 2.1-2 2.3-3.4zm1.7-1.4h-1.7c-0.1-1.1-0.2-2-0.4-2.8q0-0.3-0.1-0.6c1.2 0.7 2 2 2.2 3.4zm-7.5 0h-1.7c0.2-1.4 1-2.7 2.2-3.4q0 0.3-0.1 0.6c-0.2 0.8-0.3 1.7-0.4 2.8zm0.4 4.2q0.1 0.3 0.1 0.6c-1.2-0.7-2-2-2.2-3.4h1.7c0.1 1.1 0.2 2 0.4 2.8z"/>
		<path fill-rule="evenodd" class="s1" d="m7.5 15c-3.6 0-6.5-2.9-6.5-6.5 0-3.6 2.9-6.5 6.5-6.5 3.6 0 6.5 2.9 6.5 6.5 0 3.6-2.9 6.5-6.5 6.5zm-1.1-5.8q0.1 0.9 0.2 1.6 0 0.3 0.1 0.5c0.2 0.9 0.5 1.5 0.8 1.5 0.3 0 0.6-0.6 0.8-1.5q0.1-0.2 0.1-0.5 0.1-0.7 0.2-1.6zm2.1-1.4h-2.1q0-0.9 0.1-1.6 0.1-0.3 0.1-0.5c0.2-0.9 0.5-1.5 0.8-1.5 0.4 0 0.7 0.6 0.9 1.5q0 0.2 0.1 0.5 0.1 0.7 0.1 1.6zm1.8 1.4c0 1.1-0.1 2-0.3 2.8q-0.1 0.3-0.2 0.6c1.2-0.7 2.1-2 2.3-3.4zm1.7-1.4h-1.7c-0.1-1.1-0.2-2-0.4-2.8q0-0.3-0.1-0.6c1.2 0.7 2 2 2.2 3.4zm-7.5 0h-1.7c0.2-1.4 1-2.7 2.2-3.4q0 0.3-0.1 0.6c-0.2 0.8-0.3 1.7-0.4 2.8zm0.4 4.2q0.1 0.3 0.1 0.6c-1.2-0.7-2-2-2.2-3.4h1.7c0.1 1.1 0.2 2 0.4 2.8z"/>
	</g>
</svg>